# xmcd
#
# Track frame offsets:
#	150
#	15726
#	31369
#	46485
#	62406
#	76903
#	91748
#	106664
#	123222
#	140072
#	155102
#	171464
#	189871
#	204861
#
# Disc length: 2925 seconds
#
# Revision: 1
# Processed by: cddbd v1.5.2PL0 Copyright (c) Steve Scherf et al.
# Submitted via: audiograbber 1.83.01
#
DISCID=ad0b6b0e
DTITLE=BÓDI GUSZTI  - Stárparádé 3
DYEAR=1900
DGENRE=
TTITLE0=BÓDI GUSZTI és MARGÓ - Nem jön álom a szememre
TTITLE1=NÓTÁR MARY és BÓDI CSABY - Kicsi galamb
TTITLE2=BÓDI KIS GUSZTI - Az életem csak Te vagy
TTITLE3=MEGAROM PALI - Õszi esõ
TTITLE4=LUIGI - Szerelem hajnalán
TTITLE5=SZOLNOKI PALI - Te vagy a lány
TTITLE6=BÓDI CSABY - Ne szeress
TTITLE7=MARGÓ - Sosem feledem
TTITLE8=LUIGI - Majd élek nélküled
TTITLE9=NÓTÁR MARY - Minden rózsa
TTITLE10=BÓDI CSABY - Más karjában
TTITLE11=MEGAROM PALI - Légy párom
TTITLE12=NÓTÁR MARY - Vissza nem jövök
TTITLE13=BÓDI GUSZTI és MARGÓ - Úgy szeretlek téged
EXTD=
EXTT0=
EXTT1=
EXTT2=
EXTT3=
EXTT4=
EXTT5=
EXTT6=
EXTT7=
EXTT8=
EXTT9=
EXTT10=
EXTT11=
EXTT12=
EXTT13=
PLAYORDER=
